<?xml version="1.0" encoding="utf-8"?>
<!-- Generator: Adobe Illustrator 24.0.2, SVG Export Plug-In . SVG Version: 6.00 Build 0)  -->
<svg version="1.1" id="Layer_1" xmlns="http://www.w3.org/2000/svg" xmlns:xlink="http://www.w3.org/1999/xlink" x="0px" y="0px"
	 viewBox="0 0 400 400" style="enable-background:new 0 0 400 400;" xml:space="preserve">
<path id="XMLID_14_" d="M250.2,110.5c-10.4,11.1-15.8,26.4-16.3,40.9c-0.9,30.5,26.4,47.9,41.1,57.3l0.1,0.1
	c14.8,9.5,37.1,23.7,36.3,47.9c0,0.5,0,1-0.1,1.5c-1.8,25.5-19.5,45.1-39.6,43.7c-4.3-0.3-8.5-1.6-12.3-3.7c5.2-2.6,8.9-8,9.1-14.2
	c0.3-9.1-6.9-16.7-16-16.9s-16.7,6.9-16.9,16c-0.1,3.1,0.2,6.5,2.8,10.2c8.2,11.6,19.7,18.5,32.5,19.4c26,1.8,48.9-22.3,51-53.7
	c1-13.8-3.9-26.7-14.3-38.1c-8.5-9.3-19.1-16.1-26.9-21.1l-0.1-0.1c-15.1-9.6-37.9-24.2-36.1-49.5c0.9-12.6,5.6-24,13.3-32.3
	c7.4-8,16.8-12,26.3-11.4c4.1,0.3,8.1,1.4,11.7,3.4c-4.9,2.7-8.3,7.9-8.5,13.9c-0.3,9.1,6.9,16.7,16,16.9c9.1,0.3,16.7-6.9,16.9-16
	c0.1-4.8-1.5-10-4.8-13.8c-7.6-8.4-18.9-14.3-30.6-15.1C272.2,94.8,259.8,100.1,250.2,110.5z M304.2,118.4c3.4,0.1,5.7,2.5,5.6,5.9
	c-0.1,3.2-2.7,5.7-5.9,5.6c-3.2-0.1-5.7-2.7-5.6-5.9C298.4,120.8,301,118.3,304.2,118.4z M252,289.3c-3.2-0.1-5.7-2.7-5.6-5.9
	c0.1-3.2,2.7-5.7,5.9-5.6c3.2,0.1,5.7,2.7,5.6,5.9C257.8,286.8,255.1,289.3,252,289.3z"/>
<path id="XMLID_1377_" d="M197.1,81.7c-2.5-1.4-5.6-0.8-7.3,1.4c-0.4,0.5-31,39-65.4,53c1-2.6,1.7-5.4,1.8-8.4
	c0.8-14.6-10.5-27.1-25.1-27.9c-14.6-0.8-27.1,10.5-27.9,25.1c-0.9,17.1,14.4,30.2,31.5,28c27.8-3.5,55.4-23.3,73.4-40.5
	l-74.9,192.6c-1.1,2.9,0.3,6.2,3.2,7.4c0.6,0.2,1.2,0.4,1.8,0.4c2.4,0.1,4.7-1.3,5.6-3.6l85.7-220.5
	C200.6,86.1,199.6,83.1,197.1,81.7z M84.6,125.6c0.4-8.3,7.6-14.7,15.9-14.3c8.3,0.4,14.7,7.6,14.3,15.9
	c-0.4,6.8-5.2,12.4-11.5,13.9c-2.5,0.3-3.4,0.7-6.5,0.1C89.5,139.8,84.2,133.2,84.6,125.6z"/>
</svg>
