<svg xmlns="http://www.w3.org/2000/svg" viewBox="0 0 354.77 393.17"><title>logo</title><g id="Layer_2" data-name="Layer 2"><g id="Layer_1-2" data-name="Layer 1"><path d="M330.37,237.05c-14.4-15.84-32.43-27.35-45.59-35.75l-.21-.13c-25.56-16.32-64.2-41-61.24-84,1.46-21.28,9.48-40.74,22.58-54.81C258.52,48.77,274.36,41.92,290.5,43a49.83,49.83,0,0,1,19.92,5.69,27.88,27.88,0,1,0,41.39,25.2,34.91,34.91,0,0,0-8.15-23.42c-13-14.22-32-24.2-51.91-25.57C270,23.44,249.05,32.33,232.64,50c-17.57,18.87-26.84,44.83-27.57,69.28-1.54,51.69,44.67,81.17,69.74,97.17l.21.13c25.12,16,62.81,40.1,61.59,81.26,0,.87-.07,1.73-.13,2.61-3,43.21-33.1,76.45-67.17,74.11a50.46,50.46,0,0,1-20.91-6.24,27.88,27.88,0,1,0-40.29-25.79c-.16,5.18.39,11,4.82,17.25,13.84,19.71,33.43,31.38,55.13,32.87,44.05,3,82.86-37.78,86.51-90.95C356.19,278.24,348,256.5,330.37,237.05ZM324.22,63.39h0a9.32,9.32,0,0,1,9.48,9.18v0a5.21,5.21,0,0,1,0,.79,9.75,9.75,0,1,1-9.49-10Zm-78.53,280.2a9.74,9.74,0,1,1-9.47-10,9.77,9.77,0,0,1,9.47,10Z"/><path d="M210.07,1.27a9.68,9.68,0,0,0-12.39,2.42c-.65.82-52.63,66.14-110.92,89.85A44.95,44.95,0,1,0,.06,74.71c-1.51,29,24.37,51.13,53.45,47.42,47.07-6,93.92-39.52,124.36-68.62L51,380a9.67,9.67,0,0,0,5.5,12.51,10,10,0,0,0,3,.65A9.7,9.7,0,0,0,69,387L214.29,13.17A9.66,9.66,0,0,0,210.07,1.27ZM70.54,78.37A25.62,25.62,0,0,1,51,101.94c-4.2.57-5.76,1.2-11.1.21A25.61,25.61,0,1,1,70.54,78.37Z"/></g></g></svg>